{
  "accessors": [
    {
      "bufferView": 2,
      "componentType": 5126,
      "count": 57346,
      "max": [
        0.83703511953353882,
        2.4390637874603271,
        1.2019175291061401
      ],
      "min": [
        -1.0414670705795288,
        0.019221998751163483,
        -0.99238121509552002
      ],
      "type": "VEC3"
    },
    {
      "bufferView": 2,
      "byteOffset": 688152,
      "componentType": 5126,
      "count": 57346,
      "max": [
        0.99998468160629272,
        0.99990415573120117,
        0.99993675947189331
      ],
      "min": [
        -0.99998205900192261,
        -0.99987202882766724,
        -0.99997872114181519
      ],
      "type": "VEC3"
    },
    {
      "bufferView": 3,
      "componentType": 5126,
      "count": 57346,
      "max": [
        0.9529411792755127,
        0.61960786581039429,
        0.68627452850341797,
        1
      ],
      "min": [
        0,
        0,
        0,
        1
      ],
      "type": "VEC4"
    },
    {
      "bufferView": 1,
      "componentType": 5126,
      "count": 57346,
      "max": [
        0,
        1
      ],
      "min": [
        0,
        1
      ],
      "type": "VEC2"
    },
    {
      "bufferView": 0,
      "componentType": 5125,
      "count": 57348,
      "max": [
        57345
      ],
      "min": [
        0
      ],
      "type": "SCALAR"
    },
    {
      "bufferView": 2,
      "byteOffset": 1376304,
      "componentType": 5126,
      "count": 70,
      "max": [
        0.32765492796897888,
        2.0107696056365967,
        0.53972780704498291
      ],
      "min": [
        -0.45570191740989685,
        1.6123476028442383,
        0.06574779748916626
      ],
      "type": "VEC3"
    },
    {
      "bufferView": 2,
      "byteOffset": 1377144,
      "componentType": 5126,
      "count": 70,
      "max": [
        0.9783780574798584,
        0.99651342630386353,
        0.97677129507064819
      ],
      "min": [
        -0.9783780574798584,
        -0.99651342630386353,
        -0.97677123546600342
      ],
      "type": "VEC3"
    },
    {
      "bufferView": 3,
      "byteOffset": 917536,
      "componentType": 5126,
      "count": 70,
      "max": [
        0.9783780574798584,
        0.94949138164520264,
        0.92787742614746094,
        1
      ],
      "min": [
        -0.20460085570812225,
        -0.94949132204055786,
        -0.92787742614746094,
        1
      ],
      "type": "VEC4"
    },
    {
      "bufferView": 3,
      "byteOffset": 918656,
      "componentType": 5126,
      "count": 70,
      "max": [
        0.99607843160629272,
        0.96470588445663452,
        0.9686274528503418,
        1
      ],
      "min": [
        0.99607843160629272,
        0.96470588445663452,
        0.9686274528503418,
        1
      ],
      "type": "VEC4"
    },
    {
      "bufferView": 1,
      "byteOffset": 458768,
      "componentType": 5126,
      "count": 70,
      "max": [
        0.57848668098449707,
        1
      ],
      "min": [
        0.37345156073570251,
        0
      ],
      "type": "VEC2"
    },
    {
      "bufferView": 0,
      "byteOffset": 229392,
      "componentType": 5125,
      "count": 288,
      "max": [
        69
      ],
      "min": [
        0
      ],
      "type": "SCALAR"
    },
    {
      "bufferView": 2,
      "byteOffset": 1377984,
      "componentType": 5126,
      "count": 336,
      "max": [
        2.3884649276733398,
        -0.88315010070800781,
        0.22322790324687958
      ],
      "min": [
        1.9569755792617798,
        -1.1955971717834473,
        -0.22283141314983368
      ],
      "type": "VEC3"
    },
    {
      "bufferView": 2,
      "byteOffset": 1382016,
      "componentType": 5126,
      "count": 336,
      "max": [
        0.99900990724563599,
        0.98900657892227173,
        0.95299071073532104
      ],
      "min": [
        -0.96077173948287964,
        -0.9950903058052063,
        -0.99111455678939819
      ],
      "type": "VEC3"
    },
    {
      "bufferView": 3,
      "byteOffset": 919776,
      "componentType": 5126,
      "count": 336,
      "max": [
        0.9529411792755127,
        0.019607843831181526,
        0.13333334028720856,
        1
      ],
      "min": [
        0.9529411792755127,
        0.019607843831181526,
        0.13333334028720856,
        1
      ],
      "type": "VEC4"
    },
    {
      "bufferView": 1,
      "byteOffset": 459328,
      "componentType": 5126,
      "count": 336,
      "max": [
        0,
        1
      ],
      "min": [
        0,
        1
      ],
      "type": "VEC2"
    },
    {
      "bufferView": 0,
      "byteOffset": 230544,
      "componentType": 5125,
      "count": 336,
      "max": [
        335
      ],
      "min": [
        0
      ],
      "type": "SCALAR"
    }
  ],
  "asset": {
    "extras": {
      "author": "charfred2004 (https://sketchfab.com/charfred2004)",
      "license": "CC-BY-SA-4.0 (http://creativecommons.org/licenses/by-sa/4.0/)",
      "source": "https://sketchfab.com/3d-models/sus-6ce7d6eede304b96881b8d011161e90b",
      "title": "sus"
    },
    "generator": "Sketchfab-10.15.0",
    "version": "2.0"
  },
  "bufferViews": [
    {
      "buffer": 0,
      "byteLength": 231888,
      "byteOffset": 0,
      "name": "floatBufferViews",
      "target": 34963
    },
    {
      "buffer": 0,
      "byteLength": 462016,
      "byteOffset": 231888,
      "byteStride": 8,
      "name": "floatBufferViews",
      "target": 34962
    },
    {
      "buffer": 0,
      "byteLength": 1386048,
      "byteOffset": 693904,
      "byteStride": 12,
      "name": "floatBufferViews",
      "target": 34962
    },
    {
      "buffer": 0,
      "byteLength": 925152,
      "byteOffset": 2079952,
      "byteStride": 16,
      "name": "floatBufferViews",
      "target": 34962
    }
  ],
  "buffers": [
    {
      "byteLength": 3005104,
      "uri": "scene.bin"
    }
  ],
  "images": [
    {
      "uri": "textures/brush_Icing_normal.png"
    }
  ],
  "materials": [
    {
      "doubleSided": true,
      "emissiveFactor": [
        0,
        0,
        0
      ],
      "name": "brush_MatteHull",
      "pbrMetallicRoughness": {
        "baseColorFactor": [
          1,
          1,
          1,
          1
        ],
        "metallicFactor": 1,
        "roughnessFactor": 1
      }
    },
    {
      "doubleSided": false,
      "emissiveFactor": [
        0,
        0,
        0
      ],
      "name": "brush_Icing",
      "normalTexture": {
        "index": 0,
        "scale": 1,
        "texCoord": 0
      },
      "pbrMetallicRoughness": {
        "baseColorFactor": [
          1,
          1,
          1,
          1
        ],
        "metallicFactor": 0,
        "roughnessFactor": 0.84999999999999998
      }
    }
  ],
  "meshes": [
    {
      "primitives": [
        {
          "attributes": {
            "COLOR_0": 2,
            "NORMAL": 1,
            "POSITION": 0,
            "TEXCOORD_0": 3
          },
          "indices": 4,
          "material": 0,
          "mode": 4
        }
      ]
    },
    {
      "primitives": [
        {
          "attributes": {
            "COLOR_0": 8,
            "NORMAL": 6,
            "POSITION": 5,
            "TANGENT": 7,
            "TEXCOORD_0": 9
          },
          "indices": 10,
          "material": 1,
          "mode": 4
        }
      ]
    },
    {
      "primitives": [
        {
          "attributes": {
            "COLOR_0": 13,
            "NORMAL": 12,
            "POSITION": 11,
            "TEXCOORD_0": 14
          },
          "indices": 15,
          "material": 0,
          "mode": 4
        }
      ]
    }
  ],
  "nodes": [
    {
      "children": [
        1
      ],
      "name": "RootNode (gltf orientation matrix)",
      "rotation": [
        -0.70710678118654746,
        -0,
        -0,
        0.70710678118654757
      ]
    },
    {
      "children": [
        2
      ],
      "name": "RootNode (model correction matrix)"
    },
    {
      "children": [
        3
      ],
      "name": "root"
    },
    {
      "children": [
        4,
        9
      ],
      "matrix": [
        1,
        0,
        0,
        0,
        0,
        2.2204460492503131e-16,
        1,
        0,
        0,
        -1,
        2.2204460492503131e-16,
        0,
        0,
        0,
        0,
        1
      ],
      "name": "GLTF_SceneRootNode"
    },
    {
      "children": [
        5,
        7
      ],
      "name": "node_group_1_0"
    },
    {
      "children": [
        6
      ],
      "name": "brush_MatteHull_g1_b0_1"
    },
    {
      "mesh": 0,
      "name": ""
    },
    {
      "children": [
        8
      ],
      "name": "brush_Icing_g1_b0_4"
    },
    {
      "mesh": 1,
      "name": ""
    },
    {
      "children": [
        10
      ],
      "name": "brush_MatteHull_g0_b0_5"
    },
    {
      "mesh": 2,
      "name": ""
    }
  ],
  "samplers": [
    {
      "magFilter": 9729,
      "minFilter": 9987,
      "wrapS": 10497,
      "wrapT": 10497
    }
  ],
  "scene": 0,
  "scenes": [
    {
      "name": "OSG_Scene",
      "nodes": [
        0
      ]
    }
  ],
  "textures": [
    {
      "sampler": 0,
      "source": 0
    }
  ]
}

